# xmcd CD database file
#
# Track frame offsets:
#	182
#	15520
#	30530
#	46775
#	61495
#	75040
#	85582
#	99020
#	108497
#	122327
#	141455
#	152210
#
# Disc length: 2232 seconds
#
# Revision: 2
# Processed by: cddbd v1.4b41PL1 Copyright (c) Steve Scherf et al.
# Submitted via: Feurio! 1.50.2ß - http://www.feurio.com
#
DISCID=7e08b60c
DTITLE=Glenn Miller - Nejvetsi hity Glenna Millera
DYEAR=1900
DGENRE=
TTITLE0=In The Mood
TTITLE1=A String Of Pearls
TTITLE2=American Patrol
TTITLE3=Stormy Weather
TTITLE4=Little Brown Jug
TTITLE5=Sun Valley
TTITLE6=Chattanooba Choo Choo
TTITLE7=I Know Why
TTITLE8=Pennsylvania
TTITLE9=Saint Louis Blues
TTITLE10=Rug Cutter's Swing
TTITLE11=Monnlight Serenade
EXTD=
EXTT0=
EXTT1=
EXTT2=
EXTT3=
EXTT4=
EXTT5=
EXTT6=
EXTT7=
EXTT8=
EXTT9=
EXTT10=
EXTT11=
PLAYORDER=
